<?xml version="1.0" encoding="utf-8"?>
<!-- Generator: Adobe Illustrator 27.4.0, SVG Export Plug-In . SVG Version: 6.00 Build 0)  -->
<svg version="1.1" id="Layer_1" xmlns="http://www.w3.org/2000/svg" xmlns:xlink="http://www.w3.org/1999/xlink" x="0px" y="0px"
	 viewBox="0 0 500 500" style="enable-background:new 0 0 500 500;" xml:space="preserve">
<style type="text/css">
	.st0{fill:#628D3D;}
</style>
<path class="st0" d="M245.38,59.54c8.24-5.81,16.88-8.1,26.47-7.29c12.7,1.08,18.37,6.89,18.37,19.85c0,36.2,0,72.53,0.14,108.73
	c0,2.3-0.81,5,1.08,7.02c2.97-0.14,4.19-2.57,5.81-4.32c39.3-39.3,78.61-78.61,117.91-117.91c8.24-8.24,17.15-9.32,24.58-3.38
	c8.78,7.02,9.45,17.56,1.08,26.61c-7.16,7.7-14.86,14.99-22.42,22.56c-34.85,34.85-69.56,69.83-104.68,104.54
	c-4.19,4.19-4.05,6.62-0.68,11.08c43.63,57.94,86.98,116.02,130.34,173.96c3.11,4.19,6.35,8.1,6.62,13.78
	c0.27,7.7-4.19,14.86-11.35,17.42c-7.02,2.57-15.13,0.54-19.99-5.81c-12.83-16.88-25.39-33.77-38.09-50.78
	c-27.96-37.28-55.78-74.69-83.74-111.97c-1.76-2.3-3.65-4.46-5.67-6.89c-1.62,2.7-0.95,5.27-0.95,7.56
	c0,50.65-0.41,101.3,0.14,151.95c0.27,21.61-11.21,25.39-29.31,22.29c-12.7-2.3-21.75-10.4-28.09-21.48
	c-28.36-48.62-56.73-97.11-85.09-145.74c-4.73-8.1-3.51-15.26,2.84-18.91c6.75-3.78,13.64-1.22,18.5,7.02
	c27.01,46.33,53.89,92.52,80.9,138.85c1.35,2.3,2.7,4.32,5.13,8.1c0-107.92,0-214.08,0-322c-9.72,16.21-18.5,30.66-27.15,45.38
	c-19.58,33.09-39.17,66.32-58.89,99.27c-5.67,9.45-12.97,17.15-25.26,16.07c-12.43-1.08-19.45-8.91-23.5-20.26
	c-5-14.05-13.64-20.66-25.26-20.39c-12.83,0.27-25.12,11.21-26.61,23.64c-1.62,14.59,6.89,27.55,20.39,30.93
	c2.57,0.68,5.27,1.08,7.97,1.49c7.56,1.22,11.21,5.67,10.81,12.97c-0.41,6.89-5.13,11.08-12.83,10.81
	c-32.01-0.81-50.92-28.36-50.51-52.54c0.41-29.17,25.53-55.24,59.83-50.78c18.37,2.43,29.71,14.86,37.14,31.07
	c1.08,2.43,1.49,5.27,3.65,7.29c3.24-0.41,3.92-3.38,5.13-5.54c27.69-46.6,55.24-93.33,82.79-140.06
	C236.46,68.32,240.11,63.6,245.38,59.54z"/>
</svg>
